<svg width="147" height="33" viewBox="0 0 147 33" fill="none" xmlns="http://www.w3.org/2000/svg">
<path d="M2.83986 18.9919V15.7119H14.1039L13.6239 16.5439C13.6239 16.4586 13.6239 16.3786 13.6239 16.3039C13.6239 16.2186 13.6239 16.1386 13.6239 16.0639C13.6239 15.4559 13.4799 14.8746 13.1919 14.3199C12.9039 13.7546 12.4559 13.2959 11.8479 12.9439C11.2505 12.5813 10.4825 12.3999 9.54386 12.3999C8.60519 12.3999 7.79452 12.6026 7.11186 13.0079C6.43986 13.4026 5.92252 13.9733 5.55986 14.7199C5.20786 15.4666 5.03186 16.3679 5.03186 17.4239C5.03186 18.5119 5.20252 19.4453 5.54386 20.2239C5.89586 20.9919 6.41319 21.5839 7.09586 21.9999C7.78919 22.4159 8.64786 22.6239 9.67186 22.6239C10.3332 22.6239 10.9039 22.5653 11.3839 22.4479C11.8639 22.3199 12.2532 22.1599 12.5519 21.9679C12.8612 21.7759 13.0959 21.5626 13.2559 21.3279C13.4159 21.0933 13.5119 20.8639 13.5439 20.6399H18.4399C18.3759 21.3546 18.1305 22.0586 17.7039 22.7519C17.2772 23.4346 16.6852 24.0533 15.9279 24.6079C15.1705 25.1519 14.2479 25.5839 13.1599 25.9039C12.0825 26.2239 10.8505 26.3839 9.46386 26.3839C7.58652 26.3839 5.94919 26.0106 4.55186 25.2639C3.15452 24.5066 2.07186 23.4666 1.30386 22.1439C0.535855 20.8106 0.151855 19.2746 0.151855 17.5359C0.151855 15.7759 0.541189 14.2346 1.31986 12.9119C2.10919 11.5786 3.20252 10.5439 4.59986 9.80794C6.00786 9.06128 7.63452 8.68794 9.47986 8.68794C11.3679 8.68794 12.9999 9.06661 14.3759 9.82394C15.7519 10.5706 16.8132 11.6213 17.5599 12.9759C18.3065 14.3199 18.6799 15.8879 18.6799 17.6799C18.6799 17.9466 18.6745 18.2026 18.6639 18.4479C18.6532 18.6933 18.6372 18.8746 18.6159 18.9919H2.83986Z" fill="#191826"/>
<path d="M28.4392 26.3839C27.0205 26.3839 25.7138 26.0479 24.5192 25.3759C23.3245 24.6933 22.3645 23.6853 21.6392 22.3519C20.9138 21.0186 20.5512 19.3759 20.5512 17.4239C20.5512 15.5573 20.9192 13.9733 21.6552 12.6719C22.4018 11.3706 23.3725 10.3839 24.5672 9.71194C25.7725 9.02928 27.0632 8.68794 28.4392 8.68794C29.7832 8.68794 31.0098 9.02928 32.1192 9.71194C33.2392 10.3946 34.1352 11.3279 34.8072 12.5119C35.4792 13.6853 35.8152 15.0399 35.8152 16.5759C35.8152 16.6293 35.8152 16.6826 35.8152 16.7359C35.8152 16.7786 35.8152 16.8266 35.8152 16.8799L33.6712 16.9119C33.6712 16.8799 33.6712 16.8479 33.6712 16.8159C33.6712 16.7733 33.6712 16.7359 33.6712 16.7039C33.6712 15.9039 33.4792 15.2159 33.0952 14.6399C32.7112 14.0639 32.2152 13.6213 31.6072 13.3119C30.9992 12.9919 30.3645 12.8319 29.7032 12.8319C28.6045 12.8319 27.6552 13.1999 26.8552 13.9359C26.0552 14.6613 25.6552 15.8239 25.6552 17.4239C25.6552 19.0239 26.0552 20.2026 26.8552 20.9599C27.6658 21.7066 28.6152 22.0799 29.7032 22.0799C30.3858 22.0799 31.0312 21.9199 31.6392 21.5999C32.2472 21.2693 32.7378 20.8053 33.1112 20.2079C33.4845 19.6106 33.6712 18.9066 33.6712 18.0959L35.8152 18.2079C35.8152 19.7333 35.4845 21.1146 34.8232 22.3519C34.1725 23.5786 33.2872 24.5599 32.1672 25.2959C31.0578 26.0213 29.8152 26.3839 28.4392 26.3839ZM33.6712 32.9919V9.00794H38.6472V32.9919H33.6712Z" fill="#191826"/>
<path d="M48.0165 26.3199C46.8111 26.3199 45.8191 26.1279 45.0405 25.7439C44.2618 25.3493 43.6485 24.8213 43.2005 24.1599C42.7525 23.4986 42.4378 22.7626 42.2565 21.9519C42.0751 21.1413 41.9845 20.3199 41.9845 19.4879C41.9845 19.1039 41.9845 18.6986 41.9845 18.2719C41.9845 17.8453 41.9845 17.4079 41.9845 16.9599V9.00794H46.9445V16.1759C46.9445 16.5386 46.9445 16.8906 46.9445 17.2319C46.9445 17.5733 46.9445 17.8879 46.9445 18.1759C46.9445 18.8906 47.0245 19.5466 47.1845 20.1439C47.3445 20.7413 47.6378 21.2213 48.0645 21.5839C48.5018 21.9466 49.1205 22.1279 49.9205 22.1279C50.6991 22.1279 51.3605 21.9093 51.9045 21.4719C52.4485 21.0239 52.8645 20.4533 53.1525 19.7599C53.4405 19.0666 53.5845 18.3519 53.5845 17.6159L54.9765 18.7519C54.9765 19.8186 54.8111 20.8106 54.4805 21.7279C54.1605 22.6453 53.7018 23.4506 53.1045 24.1439C52.5071 24.8266 51.7765 25.3599 50.9125 25.7439C50.0591 26.1279 49.0938 26.3199 48.0165 26.3199ZM53.5845 25.9999V9.00794H58.5445V25.9999H53.5845Z" fill="#191826"/>
<path d="M67.5813 26.3519C66.3439 26.3519 65.2399 26.1546 64.2693 25.7599C63.3093 25.3653 62.5573 24.7946 62.0133 24.0479C61.4693 23.3013 61.1973 22.3946 61.1973 21.3279C61.1973 20.1226 61.5279 19.1413 62.1893 18.3839C62.8506 17.6266 63.7253 17.0506 64.8133 16.6559C65.9119 16.2506 67.1013 15.9839 68.3813 15.8559C70.2479 15.6746 71.5333 15.5093 72.2373 15.3599C72.9519 15.2106 73.3093 14.9493 73.3093 14.5759C73.3093 14.5653 73.3093 14.5546 73.3093 14.5439C73.3093 13.9146 73.0053 13.4186 72.3973 13.0559C71.7999 12.6933 70.9626 12.5119 69.8853 12.5119C68.7439 12.5119 67.8693 12.7199 67.2613 13.1359C66.6639 13.5413 66.3653 14.1653 66.3653 15.0079H61.4853C61.4853 13.6426 61.8533 12.4906 62.5893 11.5519C63.3359 10.6133 64.3439 9.90394 65.6133 9.42394C66.8826 8.93328 68.3173 8.68794 69.9173 8.68794C71.4106 8.68794 72.7919 8.91728 74.0613 9.37594C75.3306 9.82394 76.3493 10.5013 77.1173 11.4079C77.8959 12.3146 78.2853 13.4666 78.2853 14.8639C78.2853 15.0879 78.2853 15.3119 78.2853 15.5359C78.2853 15.7493 78.2853 15.9679 78.2853 16.1919V22.2079C78.2853 22.6453 78.2959 23.0666 78.3173 23.4719C78.3493 23.8666 78.4133 24.2293 78.5093 24.5599C78.6159 24.9333 78.7493 25.2426 78.9093 25.4879C79.0693 25.7333 79.2026 25.9039 79.3093 25.9999H74.4293C74.3546 25.9253 74.2373 25.7706 74.0773 25.5359C73.9279 25.3013 73.7999 25.0293 73.6933 24.7199C73.5653 24.3466 73.4693 23.9733 73.4053 23.5999C73.3519 23.2159 73.3253 22.7679 73.3253 22.2559L74.3493 22.9599C74.0506 23.6639 73.5653 24.2719 72.8933 24.7839C72.2319 25.2853 71.4426 25.6746 70.5253 25.9519C69.6186 26.2186 68.6373 26.3519 67.5813 26.3519ZM68.9093 22.6399C69.6879 22.6399 70.4133 22.5013 71.0853 22.2239C71.7679 21.9359 72.3226 21.4879 72.7493 20.8799C73.1759 20.2719 73.3893 19.4773 73.3893 18.4959V16.7839L74.6213 17.9839C73.9173 18.2399 73.1013 18.4533 72.1733 18.6239C71.2559 18.7839 70.3386 18.9119 69.4213 19.0079C68.3333 19.1146 67.5173 19.3013 66.9733 19.5679C66.4399 19.8239 66.1733 20.2613 66.1733 20.8799C66.1733 21.4666 66.4026 21.9093 66.8613 22.2079C67.3199 22.4959 68.0026 22.6399 68.9093 22.6399Z" fill="#191826"/>
<path d="M86.6066 0.991943V25.9999H81.7106V0.991943H86.6066Z" fill="#191826"/>
<path d="M89.9279 25.9999V9.00794H94.8399V25.9999H89.9279ZM92.3759 6.23994C91.6079 6.23994 90.9359 6.03728 90.3599 5.63194C89.7946 5.22661 89.5119 4.65594 89.5119 3.91994C89.5119 3.17328 89.7946 2.59728 90.3599 2.19194C90.9359 1.78661 91.6079 1.58394 92.3759 1.58394C93.1546 1.58394 93.8266 1.78661 94.3919 2.19194C94.9679 2.59728 95.2559 3.17328 95.2559 3.91994C95.2559 4.66661 94.9679 5.24261 94.3919 5.64794C93.8266 6.04261 93.1546 6.23994 92.3759 6.23994Z" fill="#191826"/>
<path d="M102.386 22.1119H111.602V25.9999H97.0744V22.3199L106.066 12.7039L106.178 12.8799H97.3944V9.00794H111.41V12.6879L102.498 22.2719L102.386 22.1119Z" fill="#191826"/>
<path d="M115.541 18.9919V15.7119H126.805L126.325 16.5439C126.325 16.4586 126.325 16.3786 126.325 16.3039C126.325 16.2186 126.325 16.1386 126.325 16.0639C126.325 15.4559 126.181 14.8746 125.893 14.3199C125.605 13.7546 125.157 13.2959 124.549 12.9439C123.952 12.5813 123.184 12.3999 122.245 12.3999C121.307 12.3999 120.496 12.6026 119.813 13.0079C119.141 13.4026 118.624 13.9733 118.261 14.7199C117.909 15.4666 117.733 16.3679 117.733 17.4239C117.733 18.5119 117.904 19.4453 118.245 20.2239C118.597 20.9919 119.115 21.5839 119.797 21.9999C120.491 22.4159 121.349 22.6239 122.373 22.6239C123.035 22.6239 123.605 22.5653 124.085 22.4479C124.565 22.3199 124.955 22.1599 125.253 21.9679C125.563 21.7759 125.797 21.5626 125.957 21.3279C126.117 21.0933 126.213 20.8639 126.245 20.6399H131.141C131.077 21.3546 130.832 22.0586 130.405 22.7519C129.979 23.4346 129.387 24.0533 128.629 24.6079C127.872 25.1519 126.949 25.5839 125.861 25.9039C124.784 26.2239 123.552 26.3839 122.165 26.3839C120.288 26.3839 118.651 26.0106 117.253 25.2639C115.856 24.5066 114.773 23.4666 114.005 22.1439C113.237 20.8106 112.853 19.2746 112.853 17.5359C112.853 15.7759 113.243 14.2346 114.021 12.9119C114.811 11.5786 115.904 10.5439 117.301 9.80794C118.709 9.06128 120.336 8.68794 122.181 8.68794C124.069 8.68794 125.701 9.06661 127.077 9.82394C128.453 10.5706 129.515 11.6213 130.261 12.9759C131.008 14.3199 131.381 15.8879 131.381 17.6799C131.381 17.9466 131.376 18.2026 131.365 18.4479C131.355 18.6933 131.339 18.8746 131.317 18.9919H115.541Z" fill="#191826"/>
<path d="M134.037 25.9999V9.00794H139.013V14.8639L137.989 14.2239C138.106 13.4239 138.319 12.6879 138.629 12.0159C138.938 11.3439 139.338 10.7626 139.829 10.2719C140.319 9.77061 140.901 9.38128 141.573 9.10394C142.255 8.82661 143.034 8.68794 143.909 8.68794C144.591 8.68794 145.125 8.74128 145.509 8.84794C145.903 8.94394 146.149 9.01861 146.245 9.07194L145.429 13.5199C145.333 13.4666 145.119 13.3813 144.789 13.2639C144.458 13.1466 144.031 13.0879 143.509 13.0879C142.655 13.0879 141.941 13.2319 141.365 13.5199C140.789 13.8079 140.325 14.1919 139.973 14.6719C139.631 15.1413 139.386 15.6639 139.237 16.2399C139.087 16.8159 139.013 17.3973 139.013 17.9839V25.9999H134.037Z" fill="#191826"/>
</svg>
